<?xml version="1.0" standalone="no"?>
<!DOCTYPE svg PUBLIC "-//W3C//DTD SVG 20010904//EN"
 "http://www.w3.org/TR/2001/REC-SVG-20010904/DTD/svg10.dtd">
<svg version="1.0" xmlns="http://www.w3.org/2000/svg"
 width="260.000000pt" height="266.000000pt" viewBox="0 0 260.000000 266.000000"
 preserveAspectRatio="xMidYMid meet">
<metadata>
Created by potrace 1.10, written by Peter Selinger 2001-2011
</metadata>
<g transform="translate(0.000000,266.000000) scale(0.100000,-0.100000)"
fill="#000000" stroke="none">
<path d="M1410 1458 c-56 -29 -87 -81 -66 -113 7 -11 28 -25 46 -31 l33 -11
-32 -6 c-45 -9 -86 -40 -105 -81 -23 -49 -20 -74 13 -107 24 -23 38 -29 74
-29 105 0 186 70 201 173 1 10 19 38 40 63 21 25 36 48 33 50 -8 8 -58 -27
-52 -35 5 -9 -72 -91 -85 -91 -6 0 -10 6 -10 14 0 8 -12 23 -27 34 -26 19 -27
21 -8 27 52 18 125 58 149 81 39 40 34 61 -16 68 -118 18 -142 18 -188 -6z
m145 3 c18 -7 16 -10 -15 -26 -42 -21 -110 -84 -110 -102 0 -26 -55 -12 -70
18 -33 61 111 143 195 110z m40 -46 c0 -12 -20 -31 -55 -52 -82 -49 -93 -40
-28 23 58 55 83 64 83 29z m-175 -142 c0 -46 64 -68 108 -37 30 20 28 11 -8
-41 -60 -87 -128 -121 -187 -93 -58 28 -35 135 38 171 43 21 49 21 49 0z m61
-15 c13 -25 3 -36 -19 -22 -23 15 -30 56 -7 48 8 -4 20 -15 26 -26z"/>
<path d="M1395 1190 c-8 -26 1 -40 29 -40 24 0 66 33 66 52 0 7 -13 -1 -29
-16 -21 -20 -35 -26 -48 -21 -16 6 -16 8 5 16 27 10 29 29 3 29 -11 0 -22 -9
-26 -20z"/>
<path d="M691 1433 c-24 -9 -61 -33 -82 -54 -32 -32 -39 -46 -39 -77 0 -62 47
-88 113 -63 27 11 87 67 87 83 0 6 -15 -5 -34 -24 -45 -46 -89 -64 -121 -50
-73 34 24 168 135 187 43 7 120 -2 120 -14 0 -4 -11 -18 -25 -31 -14 -13 -46
-54 -71 -92 -73 -108 -127 -143 -181 -119 -25 11 -25 12 -7 26 18 12 18 14 2
20 -36 14 -51 -20 -22 -49 20 -21 86 -21 127 0 45 23 86 63 102 100 11 27 16
30 49 26 29 -3 43 1 62 19 25 24 28 48 10 91 -6 13 -1 18 29 24 47 9 79 -17
71 -58 -6 -31 9 -39 19 -9 9 30 -12 70 -42 77 -15 4 -45 2 -67 -4 -25 -6 -48
-7 -63 -1 -36 13 -122 9 -172 -8z m209 -60 c0 -34 -26 -63 -57 -63 -30 0 -29
9 7 59 33 45 50 46 50 4z"/>
<path d="M674 1370 c-55 -35 -70 -98 -26 -106 7 -1 8 0 2 3 -27 13 1 65 52 98
31 19 58 14 58 -12 0 -13 3 -14 11 -6 7 7 9 19 6 27 -9 22 -65 20 -103 -4z"/>
<path d="M995 1280 c-14 -22 -30 -40 -37 -40 -6 0 -24 -15 -39 -32 -39 -48
-46 -27 -9 26 26 39 28 46 13 46 -21 0 -63 -60 -63 -90 0 -22 38 -28 57 -9 8
8 13 8 17 0 11 -16 62 -13 77 5 11 14 13 14 21 0 13 -23 45 -20 59 6 l12 22 8
-22 c9 -24 29 -28 60 -12 13 7 19 7 19 0 0 -17 36 -11 51 8 13 15 12 16 -4 3
-32 -25 -31 -2 1 44 l32 45 -35 0 c-47 0 -73 -12 -125 -59 -66 -59 -77 -56
-34 9 16 24 35 40 48 41 17 1 17 2 4 6 -14 4 -16 8 -8 24 9 16 7 19 -9 19 -11
0 -22 -9 -26 -20 -3 -11 -14 -20 -23 -20 -11 0 -13 -3 -6 -8 8 -5 6 -16 -6
-35 l-18 -28 -11 32 c-9 26 -8 35 4 49 17 19 19 30 5 30 -5 0 -21 -18 -35 -40z
m225 -18 c0 -12 -60 -82 -71 -82 -19 0 -8 32 20 61 28 28 51 37 51 21z m-239
-65 c-15 -16 -24 -18 -32 -10 -13 13 -4 33 15 33 8 0 17 10 21 23 l8 22 4 -24
c3 -15 -3 -31 -16 -44z"/>
<path d="M1657 1272 c9 -6 4 -20 -17 -52 -26 -39 -28 -45 -13 -49 10 -2 19 2
22 10 5 15 54 64 78 78 10 5 14 13 10 17 -4 5 -17 3 -27 -4 -12 -7 -20 -8 -20
-2 0 5 -10 10 -22 10 -15 0 -19 -3 -11 -8z"/>
<path d="M1800 1273 c-8 -3 -31 -18 -50 -33 -19 -15 -44 -30 -55 -33 -13 -4
-11 -5 7 -3 19 2 28 -2 31 -16 6 -21 37 -24 56 -5 11 10 14 10 18 0 8 -22 40
-14 66 17 14 17 30 30 36 30 6 0 11 3 11 8 0 4 9 13 20 20 20 12 20 12 5 -15
-8 -15 -22 -38 -31 -50 -15 -22 -15 -23 2 -23 21 1 64 61 64 91 0 23 -32 26
-50 4 -7 -8 -19 -15 -26 -15 -8 0 -14 -3 -14 -7 0 -14 -50 -66 -57 -59 -4 3 8
26 25 51 l32 45 -38 -1 c-20 0 -44 -3 -52 -6z m40 -11 c0 -12 -60 -82 -71 -82
-19 0 -8 32 20 61 28 28 51 37 51 21z"/>
<path d="M1994 1268 c-5 -8 -2 -9 9 -5 25 9 21 -5 -13 -51 -26 -36 -27 -42
-12 -42 10 0 35 22 55 50 21 28 42 50 47 50 15 0 12 -9 -11 -41 -43 -61 6 -81
61 -24 19 19 30 35 24 35 -5 0 -22 -14 -38 -30 -36 -39 -45 -32 -16 14 12 20
19 40 15 46 -9 14 -38 13 -54 -2 -11 -10 -14 -10 -18 0 -6 15 -39 16 -49 0z"/>
</g>
</svg>
